<svg width="55.000000" height="55.000000" viewBox="0 0 55 55" fill="none" xmlns="http://www.w3.org/2000/svg" xmlns:xlink="http://www.w3.org/1999/xlink">
	<desc>
			Created with Pixso.
	</desc>
	<defs>
		<clipPath id="clip351_968">
			<rect id="bx:bxl-facebook" width="31.000000" height="31.000000" transform="translate(12.000000 12.000000)" fill="white" fill-opacity="0"/>
		</clipPath>
	</defs>
	<rect id="Facebook" width="55.000000" height="55.000000" fill="#FFFFFF" fill-opacity="0"/>
	<circle id="Ellipse 2" cx="27.500000" cy="27.500000" r="27.500000" fill="#F5F5F8" fill-opacity="1.000000"/>
	<rect id="bx:bxl-facebook" width="31.000000" height="31.000000" transform="translate(12.000000 12.000000)" fill="#FFFFFF" fill-opacity="0"/>
	<g clip-path="url(#clip351_968)">
		<path id="Vector" d="M29.3 39.12L29.3 28.53L32.87 28.53L33.4 24.38L29.3 24.38L29.3 21.74C29.3 20.55 29.63 19.73 31.35 19.73L33.52 19.73L33.52 16.03C32.47 15.92 31.4 15.87 30.34 15.87C27.18 15.87 25.01 17.8 25.01 21.34L25.01 24.38L21.47 24.38L21.47 28.52L25.02 28.52L25.02 39.12L29.3 39.12Z" fill="#3B5998" fill-opacity="1.000000" fill-rule="nonzero"/>
	</g>
</svg>
