<svg width="55.000000" height="55.000000" viewBox="0 0 55 55" fill="none" xmlns="http://www.w3.org/2000/svg" xmlns:xlink="http://www.w3.org/1999/xlink">
	<desc>
			Created with Pixso.
	</desc>
	<defs>
		<clipPath id="clip351_982">
			<rect id="bx:bxl-linkedin" width="24.000000" height="24.000000" transform="translate(15.500000 15.500000)" fill="white" fill-opacity="0"/>
		</clipPath>
	</defs>
	<circle id="Ellipse 2" cx="27.500000" cy="27.500000" r="27.500000" fill="#F5F5F8" fill-opacity="1.000000"/>
	<rect id="bx:bxl-linkedin" width="24.000000" height="24.000000" transform="translate(15.500000 15.500000)" fill="#FFFFFF" fill-opacity="0"/>
	<g clip-path="url(#clip351_982)">
		<path id="Vector" d="M22.67 20.5C22.67 21.71 21.69 22.69 20.48 22.69C19.27 22.69 18.29 21.71 18.29 20.5C18.29 19.3 19.27 18.32 20.48 18.32C21.69 18.32 22.67 19.3 22.67 20.5Z" fill="#0A66C2" fill-opacity="1.000000" fill-rule="evenodd"/>
		<path id="Vector" d="M24.73 24.35L24.73 36.49L28.5 36.49L28.5 30.49C28.5 28.9 28.8 27.37 30.76 27.37C32.7 27.37 32.72 29.18 32.72 30.59L32.72 36.49L36.5 36.49L36.5 29.83C36.5 26.56 35.79 24.05 31.97 24.05C30.13 24.05 28.9 25.06 28.4 26.01L28.35 26.01L28.35 24.35L24.73 24.35ZM18.59 24.35L22.37 24.35L22.37 36.49L18.59 36.49L18.59 24.35Z" fill="#0A66C2" fill-opacity="1.000000" fill-rule="nonzero"/>
	</g>
</svg>
